<svg width="150" height="150" viewBox="0 0 150 150" fill="none" xmlns="http://www.w3.org/2000/svg">
<g clip-path="url(#clip0_403_3611)">
<path d="M147.337 68.3719L81.6344 2.74688C79.8017 0.916406 77.3988 0 74.9983 0C72.5978 0 70.195 0.916406 68.3623 2.74688L2.65917 68.3719C-1.00613 72.0422 -0.823096 77.7844 2.8422 81.4453C6.51688 85.125 11.8881 85.6664 15.5651 81.9938L18.7705 78.7898V140.625C18.7705 145.807 22.9685 150 28.1567 150H65.7013V112.5H84.4737V150H122.018C127.207 150 131.404 145.807 131.404 140.625V78.9727L134.209 81.7734C137.874 85.4344 143.475 85.1063 147.152 81.443C150.82 77.7844 151.012 72.0328 147.337 68.3719Z" fill="white"/>
</g>
<defs>
<clipPath id="clip0_403_3611">
<rect width="150" height="150" fill="white"/>
</clipPath>
</defs>
</svg>
