<svg width="90" height="91" viewBox="0 0 90 91" fill="none" xmlns="http://www.w3.org/2000/svg">
<path d="M79.8968 35.9712L72.6305 40.5517C72.1034 40.8684 71.4804 40.9861 70.874 40.8836C70.2677 40.7811 69.718 40.4651 69.3242 39.9927L65.7147 35.4596V69.8301C65.7135 70.4265 65.476 70.998 65.0543 71.4197C64.6327 71.8414 64.0611 72.0789 63.4647 72.0801H26.5647C25.9684 72.0789 25.3968 71.8414 24.9751 71.4197C24.5534 70.998 24.316 70.4265 24.3147 69.8301V35.4217L20.6721 39.9927C20.2786 40.4639 19.7298 40.7791 19.1245 40.8816C18.5192 40.9841 17.8972 40.8671 17.3705 40.5517L10.0995 35.9712C9.85647 35.8315 9.64873 35.638 9.49221 35.4055C9.33569 35.1731 9.23456 34.9078 9.19659 34.6301C9.15862 34.3524 9.18482 34.0697 9.27319 33.8038C9.36155 33.5378 9.50972 33.2957 9.70631 33.0959L20.3405 21.2917C21.5905 19.9022 23.1186 18.7912 24.8258 18.0306C26.533 17.27 28.3811 16.877 30.25 16.877H34.6789C35.5459 18.8996 36.9873 20.6235 38.8246 21.8348C40.6618 23.0462 42.8141 23.6919 45.0147 23.6919C47.2154 23.6919 49.3677 23.0462 51.2049 21.8348C53.0421 20.6235 54.4835 18.8996 55.3505 16.877H59.7747C61.6447 16.8775 63.4937 17.2713 65.2017 18.0326C66.9097 18.794 68.4385 19.906 69.6889 21.2964L80.2995 33.0912C80.4957 33.292 80.6433 33.5351 80.7309 33.8019C80.8185 34.0686 80.8439 34.3519 80.805 34.63C80.7661 34.9081 80.6641 35.1735 80.5066 35.406C80.3492 35.6385 80.1406 35.8318 79.8968 35.9712Z" fill="white"/>
</svg>
