<svg width="90" height="90" viewBox="0 0 90 90" fill="none" xmlns="http://www.w3.org/2000/svg">
<path d="M83.6641 22.3111C83.6641 15.0883 73.9917 9.64258 61.1641 9.64258C48.3364 9.64258 38.6641 15.0883 38.6641 22.3111C38.6641 22.3753 38.6781 22.4359 38.6799 22.4992H38.6641V32.1417H45.0924V31.3454C49.1151 33.6139 54.7437 34.9779 61.1641 34.9779C67.087 34.9779 72.32 33.8063 76.2558 31.8455C76.8657 32.4766 77.2357 33.1041 77.2357 33.6543C77.2357 36.1372 70.8259 39.8928 61.1641 39.8928H54.7375V46.3211H61.1641C67.0879 46.3211 72.3227 45.1495 76.2584 43.1878C76.8692 43.818 77.2349 44.4455 77.2349 44.9983C77.2349 47.483 70.825 51.2386 61.1632 51.2386L58.8877 51.2491C57.4894 51.2614 56.135 51.2746 54.8148 51.2395L54.6575 57.6651C55.3642 57.6827 56.0796 57.6889 56.8091 57.6889C57.5061 57.6889 58.2153 57.6845 58.936 57.6783L61.1632 57.6678C67.0905 57.6678 72.327 56.4944 76.2637 54.531C76.8763 55.1664 77.234 55.7975 77.234 56.3433C77.234 58.8279 70.8241 62.5835 61.1623 62.5835H54.7357V69.0118H61.1623C67.0896 69.0118 72.3253 67.8385 76.2628 65.875C76.8763 66.5096 77.234 67.1406 77.234 67.6873C77.234 70.172 70.8241 73.9275 61.1623 73.9275H54.7357V80.3559H61.1623C73.9899 80.3559 83.6623 74.9102 83.6623 67.6873C83.6623 67.6275 83.6544 67.5599 83.6526 67.4992H83.6623V22.4992H83.6465C83.6491 22.4359 83.6641 22.3744 83.6641 22.3111ZM45.0924 22.3111C45.0924 19.8265 51.5022 16.0709 61.1641 16.0709C70.8259 16.0709 77.2357 19.8265 77.2357 22.3111C77.2357 24.794 70.8259 28.5496 61.1641 28.5496C51.5022 28.5496 45.0924 24.794 45.0924 22.3111Z" fill="white"/>
<path d="M29.0156 32.1426C16.188 32.1426 6.51562 37.5883 6.51562 44.8111C6.51562 44.8753 6.52969 44.9359 6.53145 44.9992H6.51562V67.4992C6.51562 74.7221 16.188 80.1678 29.0156 80.1678C41.8433 80.1678 51.5156 74.7221 51.5156 67.4992V45.0001H51.4998C51.5016 44.9368 51.5156 44.8753 51.5156 44.812C51.5156 37.5892 41.8433 32.1426 29.0156 32.1426ZM12.9439 56.1561C12.9439 55.6006 13.3069 54.9739 13.9178 54.3437C17.8544 56.3063 23.09 57.4788 29.0156 57.4788C34.9386 57.4788 40.1716 56.3072 44.1073 54.3464C44.7173 54.9774 45.0873 55.605 45.0873 56.1552C45.0873 58.6381 38.6774 62.3937 29.0156 62.3937C19.3538 62.3937 12.9439 58.639 12.9439 56.1561ZM29.0156 38.5718C38.6774 38.5718 45.0873 42.3273 45.0873 44.812C45.0873 47.2949 38.6774 51.0505 29.0156 51.0505C19.3538 51.0505 12.9439 47.2949 12.9439 44.812C12.9439 42.3273 19.3538 38.5718 29.0156 38.5718ZM29.0156 73.7403C19.3538 73.7403 12.9439 69.9848 12.9439 67.5001C12.9439 66.9473 13.3104 66.3197 13.9204 65.6896C17.857 67.6513 23.0909 68.8237 29.0156 68.8237C34.9395 68.8237 40.1742 67.6521 44.11 65.6904C44.7208 66.3206 45.0864 66.9481 45.0864 67.501C45.0873 69.9848 38.6774 73.7403 29.0156 73.7403Z" fill="white"/>
</svg>
