<svg width="150" height="150" viewBox="0 0 150 150" fill="none" xmlns="http://www.w3.org/2000/svg">
<g clip-path="url(#clip0_403_3576)">
<path d="M35.4402 127.319L60.8186 96.5447L72.4275 111.352L50.052 139.806C41.4827 150.695 25.6258 139.22 35.4402 127.319ZM65.0789 57.238C67.4959 49.3523 66.385 42.614 57.303 32.6043L35.1106 5.90749C31.9612 2.20876 24.5393 7.64089 27.6399 12.1209L45.389 33.9837C48.7459 38.0608 42.5081 43.4563 39.0413 39.2571L20.6819 16.6497C17.264 12.7312 10.1961 17.907 13.7727 22.387C18.9485 28.6126 26.9563 38.781 32.1321 45.0066C35.721 48.6565 30.2644 54.0642 26.7244 49.511L8.49931 27.0501C5.82597 24.1448 1.45585 25.9514 0.296182 29.345C-0.948935 32.9705 2.11503 35.6194 4.20243 38.3049L24.5393 64.5745C30.8504 71.8865 37.906 76.22 46.1092 73.7664C47.3665 73.388 48.9046 72.6189 50.5525 71.6057L105.191 142.138C108.133 145.934 113.809 146.337 117.496 143.273L118.338 142.577C122.489 139.123 123.16 132.812 119.608 128.735L61.7464 62.2551C63.4309 60.3753 64.6638 58.593 65.0789 57.238ZM80.5452 72.6189L89.5418 61.7058C77.9695 33.0193 120.853 -5.21311 141.641 12.365C166.898 33.7395 129.361 85.2532 102.982 72.5213L92.325 86.0589L80.5452 72.6189Z" fill="white"/>
</g>
<defs>
<clipPath id="clip0_403_3576">
<rect width="150" height="150" fill="white"/>
</clipPath>
</defs>
</svg>
