<svg width="150" height="150" viewBox="0 0 150 150" fill="none" xmlns="http://www.w3.org/2000/svg">
<g clip-path="url(#clip0_403_3595)">
<path d="M149 27.2734C149.08 24.2544 147.121 21.6191 145.251 19.2051C144.992 22.2361 142.331 27.2453 141.064 29.8334L93.2895 127.518C89.5826 135.092 84.9549 144.413 74.7859 143.327C74.3975 143.304 6.8125 136.206 6.8125 136.206C8.72939 139.225 10.8774 143.111 14.6644 143.516L70.3328 149.382C76.7808 150.075 82.9041 150.979 88.7066 147.157C95.1382 142.929 98.4707 135.247 101.683 128.684L146.97 33.3405C147.922 31.3929 148.911 29.4944 149 27.2761C149.01 27.064 149 27.2427 149 27.2734Z" fill="white"/>
<path d="M70.027 136.226C75.6532 136.829 82.4524 132.847 85.1181 127.393L100.643 95.6609L138.709 17.8173C141.385 12.3491 138.964 7.38676 133.34 6.78178L70.7761 0.0604942C65.1382 -0.542435 58.3557 3.43051 55.6827 8.89878L2.08902 118.474C-0.579043 123.928 1.82301 128.9 7.46324 129.505L70.027 136.226ZM46.9431 120.431C45.7326 122.899 42.6664 124.687 40.1275 124.416C37.5839 124.143 36.5102 121.913 37.7181 119.437C38.926 116.974 41.9735 115.186 44.5077 115.457C47.0465 115.728 48.149 117.965 46.9431 120.431ZM64.361 14.186L126.016 20.8082L83.0975 108.533L21.4425 101.911L64.361 14.186Z" fill="white"/>
</g>
<defs>
<clipPath id="clip0_403_3595">
<rect width="150" height="150" fill="white"/>
</clipPath>
</defs>
</svg>
