<svg width="122" height="122" viewBox="0 0 122 122" fill="none" xmlns="http://www.w3.org/2000/svg">
<rect width="122" height="122" rx="23.0189" fill="#D9D9D9"/>
<path d="M29.7309 46.0678C29.2763 46.1459 28.8123 46.1151 28.3557 46.0499L28.0918 46.0122C27.9447 45.9912 27.7963 45.9807 27.6477 45.9807C26.718 45.9807 25.7511 45.609 24.7469 44.8657C23.78 44.1224 23.2965 42.803 23.2965 40.9075C23.2965 39.0121 24.3192 36.8564 26.3647 34.4407C28.4473 32.0249 31.2552 29.8135 34.7882 27.8065C38.3212 25.7624 42.7096 24.0899 47.9534 22.7891C53.2343 21.4883 58.7942 20.8379 64.633 20.8379C76.571 20.8379 85.887 23.1979 92.5812 27.918C99.3126 32.6009 102.678 38.6962 102.678 46.2037C102.678 50.8866 101.637 55.5695 99.5543 60.2524C97.4717 64.9354 94.6824 69.2652 91.1866 73.242C87.6907 77.1816 83.5813 80.8796 78.8582 84.336C74.135 87.7553 69.1888 90.6728 64.0194 93.0886C52.8624 98.2175 42.189 100.782 31.9989 100.782C26.9783 100.782 23.8172 100.373 22.5155 99.5555C22.0321 99.2953 21.5486 98.9051 21.0651 98.3848C20.6189 97.8273 20.2656 97.4556 20.0052 97.2698C19.2986 96.8238 18.9453 95.8761 18.9453 94.4266C18.9453 92.94 19.0941 91.602 19.3916 90.4127C20.5073 86.4359 25.5093 77.8134 34.3977 64.5451C43.3233 51.2397 50.7798 40.5173 56.7674 32.3779C57.1765 31.8204 59.2777 31.4116 63.0711 31.1515C64.633 31.1515 65.7115 31.263 66.3066 31.486C66.9016 31.709 67.1991 32.1178 67.1991 32.7124C67.1991 33.2699 66.2322 34.9052 64.2983 37.6183C62.3645 40.2943 56.1538 49.7159 45.6662 65.8831C35.1787 82.0131 29.9349 90.3012 29.9349 90.7472C29.9349 91.1932 31.5713 91.4162 34.844 91.4162C38.1539 91.4162 42.2076 90.7286 47.005 89.3534C51.8397 87.9411 56.3769 86.1014 60.6165 83.8343C64.8562 81.5672 68.9099 78.947 72.7776 75.9737C76.6454 72.9632 79.9553 69.897 82.7073 66.7751C88.7321 59.9365 91.7444 53.8599 91.7444 48.5452C91.7444 43.2304 89.3085 38.7147 84.4366 34.9981C79.6019 31.2815 72.9636 29.4232 64.5215 29.4232C58.8314 29.4232 53.4575 30.371 48.3997 32.2664C43.3419 34.1619 39.8646 35.853 37.9679 37.3396C36.0712 38.8262 35.1229 39.8297 35.1229 40.35C35.1229 40.957 36.0926 40.7402 36.6893 40.6293L37.5954 40.4608C37.9917 40.3871 38.6931 40.17 38.6931 40.573C38.6931 40.7217 38.377 40.9819 37.7448 41.3535C37.1126 41.7252 36.5919 42.134 36.1828 42.58C35.8109 42.9888 34.844 43.6764 33.282 44.6427C31.9977 45.4067 30.814 45.8817 29.7309 46.0678Z" fill="url(#paint0_linear_404_156)"/>
<defs>
<linearGradient id="paint0_linear_404_156" x1="18.9453" y1="60.8099" x2="102.678" y2="60.8099" gradientUnits="userSpaceOnUse">
<stop stop-color="#8D70DA"/>
<stop offset="1" stop-color="#F66A4F"/>
</linearGradient>
</defs>
</svg>
