<svg width="61" height="61" viewBox="0 0 61 61" fill="none" xmlns="http://www.w3.org/2000/svg">
<rect width="61" height="61" rx="11.5094" fill="#D9D9D9"/>
<path d="M14.8615 23.0349C14.6342 23.0739 14.4022 23.0585 14.1739 23.0259L14.042 23.0071C13.9684 22.9966 13.8942 22.9913 13.82 22.9913C13.3551 22.9913 12.8716 22.8055 12.3696 22.4338C11.8861 22.0622 11.6444 21.4025 11.6444 20.4547C11.6444 19.507 12.1557 18.4292 13.1784 17.2213C14.2198 16.0134 15.6237 14.9077 17.3902 13.9042C19.1567 12.8822 21.3509 12.0459 23.9728 11.3955C26.6133 10.7451 29.3932 10.4199 32.3126 10.4199C38.2816 10.4199 42.9396 11.5999 46.2867 13.96C49.6524 16.3014 51.3352 19.3491 51.3352 23.1028C51.3352 25.4443 50.8146 27.7857 49.7732 30.1272C48.7319 32.4687 47.3373 34.6336 45.5894 36.622C43.8415 38.5918 41.7867 40.4408 39.4252 42.169C37.0636 43.8786 34.5905 45.3374 32.0058 46.5453C26.4273 49.1097 21.0906 50.392 15.9956 50.392C13.4853 50.392 11.9047 50.1876 11.2539 49.7787C11.0121 49.6486 10.7704 49.4535 10.5287 49.1934C10.3055 48.9146 10.1289 48.7288 9.99871 48.6359C9.6454 48.4129 9.46875 47.939 9.46875 47.2143C9.46875 46.471 9.54313 45.802 9.69189 45.2073C10.2497 43.2189 12.7508 38.9077 17.1949 32.2735C21.6577 25.6208 25.386 20.2596 28.3798 16.1899C28.5843 15.9112 29.6349 15.7068 31.5316 15.5767C32.3126 15.5767 32.8519 15.6325 33.1494 15.744C33.4469 15.8555 33.5957 16.0599 33.5957 16.3572C33.5957 16.6359 33.1122 17.4536 32.1453 18.8101C31.1783 20.1481 28.073 24.8589 22.8292 32.9425C17.5854 41.0075 14.9635 45.1516 14.9635 45.3746C14.9635 45.5976 15.7817 45.7091 17.4181 45.7091C19.073 45.7091 21.0999 45.3653 23.4986 44.6777C25.916 43.9715 28.1845 43.0517 30.3044 41.9181C32.4242 40.7846 34.451 39.4745 36.3849 37.9878C38.3188 36.4826 39.9737 34.9495 41.3497 33.3885C44.3621 29.9692 45.8683 26.9309 45.8683 24.2736C45.8683 21.6162 44.6503 19.3583 42.2144 17.5C39.7971 15.6417 36.4779 14.7126 32.2568 14.7126C29.4118 14.7126 26.7248 15.1865 24.1959 16.1342C21.667 17.0819 19.9284 17.9275 18.9801 18.6708C18.0317 19.4141 17.5575 19.9158 17.5575 20.176C17.5575 20.4795 18.0424 20.3711 18.3407 20.3156L18.7938 20.2314C18.9919 20.1945 19.3427 20.086 19.3427 20.2875C19.3427 20.3618 19.1846 20.4919 18.8685 20.6777C18.5524 20.8636 18.292 21.068 18.0875 21.291C17.9015 21.4954 17.4181 21.8392 16.6371 22.3223C15.995 22.7043 15.4031 22.9418 14.8615 23.0349Z" fill="url(#paint0_linear_403_3662)"/>
<defs>
<linearGradient id="paint0_linear_403_3662" x1="9.46875" y1="30.4059" x2="51.3352" y2="30.4059" gradientUnits="userSpaceOnUse">
<stop stop-color="#8D70DA"/>
<stop offset="1" stop-color="#F66A4F"/>
</linearGradient>
</defs>
</svg>
