<svg width="61" height="62" viewBox="0 0 61 62" fill="none" xmlns="http://www.w3.org/2000/svg">
<rect y="0.308594" width="61" height="61" rx="11.5094" fill="#D9D9D9"/>
<path d="M14.8615 23.3435C14.6342 23.3825 14.4022 23.3671 14.1739 23.3345L14.042 23.3157C13.9684 23.3052 13.8942 23.2999 13.82 23.2999C13.3551 23.2999 12.8716 23.1141 12.3696 22.7424C11.8861 22.3708 11.6444 21.7111 11.6444 20.7633C11.6444 19.8156 12.1557 18.7378 13.1784 17.5299C14.2198 16.322 15.6237 15.2163 17.3902 14.2128C19.1567 13.1908 21.3509 12.3545 23.9728 11.7041C26.6133 11.0537 29.3932 10.7285 32.3126 10.7285C38.2816 10.7285 42.9396 11.9085 46.2867 14.2686C49.6524 16.61 51.3352 19.6576 51.3352 23.4114C51.3352 25.7529 50.8146 28.0943 49.7732 30.4358C48.7319 32.7773 47.3373 34.9422 45.5894 36.9306C43.8415 38.9004 41.7867 40.7494 39.4252 42.4776C37.0636 44.1872 34.5905 45.646 32.0058 46.8539C26.4273 49.4183 21.0906 50.7006 15.9956 50.7006C13.4853 50.7006 11.9047 50.4961 11.2539 50.0873C11.0121 49.9572 10.7704 49.7621 10.5287 49.502C10.3055 49.2232 10.1289 49.0374 9.99871 48.9445C9.6454 48.7215 9.46875 48.2476 9.46875 47.5229C9.46875 46.7795 9.54313 46.1106 9.69189 45.5159C10.2497 43.5275 12.7508 39.2163 17.1949 32.5821C21.6577 25.9294 25.386 20.5682 28.3798 16.4985C28.5843 16.2198 29.6349 16.0154 31.5316 15.8853C32.3126 15.8853 32.8519 15.941 33.1494 16.0525C33.4469 16.164 33.5957 16.3685 33.5957 16.6658C33.5957 16.9445 33.1122 17.7622 32.1453 19.1187C31.1783 20.4567 28.073 25.1675 22.8292 33.2511C17.5854 41.3161 14.9635 45.4602 14.9635 45.6832C14.9635 45.9061 15.7817 46.0176 17.4181 46.0176C19.073 46.0176 21.0999 45.6739 23.4986 44.9863C25.916 44.2801 28.1845 43.3603 30.3044 42.2267C32.4242 41.0931 34.451 39.783 36.3849 38.2964C38.3188 36.7912 39.9737 35.2581 41.3497 33.6971C44.3621 30.2778 45.8683 27.2395 45.8683 24.5821C45.8683 21.9248 44.6503 19.6669 42.2144 17.8086C39.7971 15.9503 36.4779 15.0212 32.2568 15.0212C29.4118 15.0212 26.7248 15.4951 24.1959 16.4428C21.667 17.3905 19.9284 18.2361 18.9801 18.9794C18.0317 19.7227 17.5575 20.2244 17.5575 20.4846C17.5575 20.7881 18.0424 20.6797 18.3407 20.6242L18.7938 20.54C18.9919 20.5031 19.3427 20.3946 19.3427 20.5961C19.3427 20.6704 19.1846 20.8005 18.8685 20.9863C18.5524 21.1722 18.292 21.3766 18.0875 21.5996C17.9015 21.804 17.4181 22.1478 16.6371 22.6309C15.995 23.0129 15.4031 23.2504 14.8615 23.3435Z" fill="url(#paint0_linear_404_19)"/>
<defs>
<linearGradient id="paint0_linear_404_19" x1="9.46875" y1="30.7145" x2="51.3352" y2="30.7145" gradientUnits="userSpaceOnUse">
<stop stop-color="#8D70DA"/>
<stop offset="1" stop-color="#F66A4F"/>
</linearGradient>
</defs>
</svg>
