<svg width="61" height="61" viewBox="0 0 61 61" fill="none" xmlns="http://www.w3.org/2000/svg">
<rect width="61" height="61" rx="11.5094" fill="#D9D9D9"/>
<path d="M36.8358 7.27003C32.637 15.2705 27.5303 22.2496 24.3528 30.7039L18.5085 47.102C17.8277 48.634 16.5794 50.3929 15.3878 50.3929C12.3806 50.3929 11.1323 35.4701 10.2811 29.9663C9.54352 25.4271 8.125 20.3204 8.125 16.2351C8.125 15.2137 8.46544 14.5896 10.3379 14.5896C11.416 14.5896 12.1536 14.8733 12.4373 16.3485C12.8912 18.6182 13.3451 20.9445 13.7423 23.2142L16.1254 34.3353C16.4659 36.2645 16.4659 37.91 17.317 40.0094C17.7142 39.5555 18.3383 39.215 18.5653 38.7044C19.9838 35.2432 21.3456 31.782 22.6506 28.2073C25.5444 20.4339 29.7999 13.5115 35.5875 7.61048L36.3251 6.98633C36.4953 7.04307 36.6656 7.21329 36.8358 7.27003Z" fill="url(#paint0_linear_474_2474)"/>
<path d="M28.3389 46.3644C28.9063 43.6975 29.3602 41.1442 29.8709 38.4207C30.3815 35.5836 29.7574 29.7393 33.559 29.7393C34.864 29.7393 35.8286 30.8174 35.8286 32.0657V32.3494C34.6938 37.3426 33.4455 42.3925 32.1972 47.329C31.9135 48.407 30.6652 49.0312 29.8709 49.4284C29.3602 48.6907 28.5091 47.7261 28.5091 46.875V46.4778C28.5091 46.4778 28.4523 46.3644 28.3389 46.3644ZM33.6157 21.9091C33.6725 19.8665 34.5803 19.0721 35.9989 19.0721C37.0769 19.0721 37.8713 19.526 37.8713 20.3771C37.8713 20.1502 36.7932 23.3844 35.3747 23.3844C35.0343 23.3844 33.9562 22.1928 33.6157 21.9091Z" fill="url(#paint1_linear_474_2474)"/>
<path d="M44.2245 37.0021C42.4088 36.9454 39.0611 36.9454 39.0611 34.9595C39.0611 34.6758 39.1178 34.3921 39.3448 34.0516C41.047 31.1579 42.9762 28.2641 44.9621 25.5973C45.2458 25.2001 45.9267 24.9731 46.6643 24.9731C47.5722 24.9731 48.1963 25.3136 48.1963 27.1293C48.1963 28.7747 47.5722 31.4416 46.5508 31.4416C45.9834 31.4416 45.2458 29.9663 44.6784 29.9663C43.8273 29.9663 43.3734 32.5764 43.0897 33.8247C44.1677 34.0516 45.1323 34.3353 46.2104 34.3353H46.7778C50.012 34.3353 51.998 36.0943 51.998 38.7611C51.998 43.5841 47.175 48.0098 43.7138 50.8469C41.5577 52.6058 39.3448 54.1378 36.5645 54.1378C34.919 54.1378 33.8977 53.0598 33.8977 51.7547C33.8977 48.9744 37.6993 45.6267 40.1392 44.0947C40.2526 43.9812 40.4796 43.9813 40.6498 43.9813H41.274C41.274 44.3217 41.274 44.8324 41.047 45.1728C40.5931 45.9672 39.0611 47.7829 39.0611 48.5772C39.0611 49.2581 39.2313 49.2581 39.7987 49.2581C40.5931 49.2581 43.0329 47.1587 43.7138 46.3644C45.4728 44.3217 48.3098 41.1442 48.3098 38.9313C48.3098 37.5696 46.948 36.8319 45.1323 36.8319C44.8486 36.8319 44.5082 37.0021 44.2245 37.0021Z" fill="url(#paint2_linear_474_2474)"/>
<defs>
<linearGradient id="paint0_linear_474_2474" x1="8.125" y1="30.5621" x2="51.998" y2="30.5621" gradientUnits="userSpaceOnUse">
<stop stop-color="#8D70DA"/>
<stop offset="1" stop-color="#F66A4F"/>
</linearGradient>
<linearGradient id="paint1_linear_474_2474" x1="8.125" y1="30.5621" x2="51.998" y2="30.5621" gradientUnits="userSpaceOnUse">
<stop stop-color="#8D70DA"/>
<stop offset="1" stop-color="#F66A4F"/>
</linearGradient>
<linearGradient id="paint2_linear_474_2474" x1="8.125" y1="30.5621" x2="51.998" y2="30.5621" gradientUnits="userSpaceOnUse">
<stop stop-color="#8D70DA"/>
<stop offset="1" stop-color="#F66A4F"/>
</linearGradient>
</defs>
</svg>
