<svg width="759" height="452" viewBox="0 0 759 452" fill="none" xmlns="http://www.w3.org/2000/svg">
<rect x="237" width="290" height="290" rx="20" fill="#D9D9D9"/>
<path d="M412.142 34.5616C392.181 72.5965 367.903 105.776 352.797 145.969L325.013 223.927C321.776 231.21 315.841 239.572 310.177 239.572C295.88 239.572 289.945 168.628 285.899 142.462C282.392 120.882 275.648 96.6043 275.648 77.1823C275.648 72.3268 277.267 69.3595 286.169 69.3595C291.294 69.3595 294.801 70.7083 296.149 77.7218C298.308 88.5118 300.466 99.5716 302.354 110.362L313.683 163.233C315.302 172.404 315.302 180.227 319.348 190.208C321.236 188.05 324.204 186.431 325.283 184.004C332.026 167.549 338.5 151.094 344.705 134.1C358.462 97.1438 378.693 64.2342 406.208 36.1802L409.715 33.2129C410.524 33.4827 411.333 34.2919 412.142 34.5616Z" fill="url(#paint0_linear_53_7288)"/>
<path d="M371.747 220.42C374.445 207.742 376.603 195.603 379.03 182.655C381.458 169.167 378.491 141.383 396.564 141.383C402.768 141.383 407.354 146.508 407.354 152.443V153.791C401.959 177.53 396.025 201.537 390.09 225.006C388.741 230.131 382.807 233.098 379.03 234.986C376.603 231.48 372.556 226.894 372.556 222.848V220.959C372.556 220.959 372.287 220.42 371.747 220.42ZM396.834 104.157C397.104 94.4463 401.42 90.6698 408.163 90.6698C413.289 90.6698 417.065 92.8278 417.065 96.8741C417.065 95.7951 411.94 111.171 405.196 111.171C403.578 111.171 398.452 105.506 396.834 104.157Z" fill="url(#paint1_linear_53_7288)"/>
<path d="M447.269 175.911C438.637 175.641 422.722 175.641 422.722 166.2C422.722 164.851 422.991 163.503 424.07 161.884C432.163 148.127 441.334 134.369 450.776 121.691C452.124 119.803 455.361 118.724 458.868 118.724C463.184 118.724 466.151 120.342 466.151 128.974C466.151 136.797 463.184 149.475 458.329 149.475C455.631 149.475 452.124 142.462 449.427 142.462C445.381 142.462 443.223 154.87 441.874 160.805C446.999 161.884 451.585 163.233 456.71 163.233H459.408C474.783 163.233 484.225 171.595 484.225 184.273C484.225 207.202 461.296 228.243 444.841 241.73C434.591 250.093 424.07 257.376 410.853 257.376C403.03 257.376 398.174 252.251 398.174 246.046C398.174 232.828 416.248 216.913 427.847 209.63C428.386 209.09 429.465 209.09 430.275 209.09H433.242C433.242 210.709 433.242 213.137 432.163 214.755C430.005 218.532 422.722 227.164 422.722 230.94C422.722 234.177 423.531 234.177 426.228 234.177C430.005 234.177 441.604 224.196 444.841 220.42C453.203 210.709 466.691 195.603 466.691 185.083C466.691 178.609 460.217 175.102 451.585 175.102C450.236 175.102 448.618 175.911 447.269 175.911Z" fill="url(#paint2_linear_53_7288)"/>
<path d="M44.1533 425.448H39.4493L72.1853 357H81.9773L46.5533 429H36.7613L1.33725 357H11.1293L44.1533 425.448ZM91.7985 357H100.823V429H91.7985V357ZM113.436 405.672H122.556C123.004 409.064 124.348 412.04 126.588 414.6C128.828 417.16 131.772 419.144 135.42 420.552C139.132 421.896 143.388 422.568 148.188 422.568C155.42 422.568 161.148 421.352 165.372 418.92C169.66 416.424 171.804 413.064 171.804 408.84C171.804 405.576 170.46 403.08 167.772 401.352C165.148 399.624 160.54 398.376 153.948 397.608L140.028 395.88C131.26 394.856 124.956 392.776 121.116 389.64C117.276 386.44 115.356 382.152 115.356 376.776C115.356 372.488 116.636 368.776 119.196 365.64C121.756 362.44 125.34 360.008 129.948 358.344C134.62 356.616 140.06 355.752 146.268 355.752C152.476 355.752 157.98 356.712 162.78 358.632C167.644 360.488 171.484 363.112 174.3 366.504C177.18 369.832 178.748 373.768 179.004 378.312H169.884C169.5 375.24 168.284 372.616 166.236 370.44C164.188 368.2 161.436 366.472 157.98 365.256C154.588 363.976 150.62 363.336 146.076 363.336C139.484 363.336 134.204 364.52 130.236 366.888C126.332 369.192 124.38 372.424 124.38 376.584C124.38 379.784 125.66 382.248 128.22 383.976C130.844 385.64 135.26 386.856 141.468 387.624L155.1 389.448C161.436 390.216 166.46 391.336 170.172 392.808C173.948 394.28 176.668 396.264 178.332 398.76C179.996 401.192 180.828 404.296 180.828 408.072C180.828 412.616 179.452 416.552 176.7 419.88C174.012 423.208 170.204 425.768 165.276 427.56C160.348 429.352 154.62 430.248 148.092 430.248C141.5 430.248 135.644 429.224 130.524 427.176C125.404 425.064 121.34 422.184 118.332 418.536C115.324 414.824 113.692 410.536 113.436 405.672ZM201.769 398.76C201.769 403.496 202.729 407.624 204.649 411.144C206.633 414.6 209.449 417.288 213.097 419.208C216.745 421.128 221.033 422.088 225.961 422.088C230.953 422.088 235.241 421.128 238.825 419.208C242.409 417.288 245.193 414.6 247.177 411.144C249.161 407.624 250.153 403.496 250.153 398.76V357H259.177V398.952C259.177 405.16 257.769 410.632 254.953 415.368C252.137 420.04 248.233 423.688 243.241 426.312C238.313 428.936 232.553 430.248 225.961 430.248C219.369 430.248 213.577 428.936 208.585 426.312C203.593 423.688 199.689 420.04 196.873 415.368C194.121 410.632 192.745 405.16 192.745 398.952V357H201.769V398.76ZM279.191 411.144V403.464H329.879V411.144H279.191ZM310.199 357L345.623 429H335.831L302.519 360.072H307.319L273.911 429H264.119L299.543 357H310.199ZM364.448 357V424.968L360.416 421.032H414.848V429H355.424V357H364.448ZM424.892 357H433.916V429H424.892V357ZM474.946 361.32H483.97V429H474.946V361.32ZM444.034 357H514.882V364.968H444.034V357ZM552.284 429V394.92H561.308V429H552.284ZM518.204 357H528.572L559.772 395.688H553.916L584.924 357H595.292L559.676 401.352L554.012 401.448L518.204 357ZM597.458 429.672C596.306 429.672 595.25 429.416 594.29 428.904C593.33 428.328 592.562 427.56 591.986 426.6C591.474 425.64 591.218 424.584 591.218 423.432C591.218 422.216 591.474 421.16 591.986 420.264C592.562 419.304 593.298 418.568 594.194 418.056C595.154 417.48 596.242 417.192 597.458 417.192C598.61 417.192 599.634 417.48 600.53 418.056C601.49 418.568 602.258 419.304 602.834 420.264C603.41 421.224 603.698 422.28 603.698 423.432C603.698 424.584 603.41 425.64 602.834 426.6C602.258 427.496 601.49 428.232 600.53 428.808C599.634 429.384 598.61 429.672 597.458 429.672ZM616.986 429V357H626.01V420.936L622.842 419.496L674.874 357H684.858L624.858 429H616.986ZM651.162 391.848L657.21 384.84L686.01 429H675.546L651.162 391.848ZM689.99 429V421.704L746.438 360.84L751.238 364.68H690.374V357H754.886V364.2L698.438 425.16L694.118 421.32H755.174V429H689.99Z" fill="white"/>
<defs>
<linearGradient id="paint0_linear_53_7288" x1="275.648" y1="145.294" x2="484.225" y2="145.294" gradientUnits="userSpaceOnUse">
<stop stop-color="#8D70DA"/>
<stop offset="1" stop-color="#F66A4F"/>
</linearGradient>
<linearGradient id="paint1_linear_53_7288" x1="275.648" y1="145.294" x2="484.225" y2="145.294" gradientUnits="userSpaceOnUse">
<stop stop-color="#8D70DA"/>
<stop offset="1" stop-color="#F66A4F"/>
</linearGradient>
<linearGradient id="paint2_linear_53_7288" x1="275.648" y1="145.294" x2="484.225" y2="145.294" gradientUnits="userSpaceOnUse">
<stop stop-color="#8D70DA"/>
<stop offset="1" stop-color="#F66A4F"/>
</linearGradient>
</defs>
</svg>
