<svg width="787" height="455" viewBox="0 0 787 455" fill="none" xmlns="http://www.w3.org/2000/svg">
<rect x="248" width="290" height="290" rx="23.0189" fill="#D9D9D9"/>
<path d="M318.669 109.506C317.588 109.692 316.486 109.618 315.4 109.463L314.773 109.374C314.423 109.324 314.071 109.299 313.717 109.299C311.507 109.299 309.209 108.415 306.822 106.649C304.524 104.882 303.374 101.745 303.374 97.2397C303.374 92.7341 305.805 87.6101 310.667 81.8676C315.618 76.1252 322.292 70.8686 330.691 66.098C339.089 61.239 349.52 57.2634 361.985 54.1713C374.538 51.0792 387.754 49.5332 401.633 49.5332C430.01 49.5332 452.155 55.1431 468.067 66.363C484.068 77.4945 492.069 91.9832 492.069 109.829C492.069 120.961 489.593 132.092 484.643 143.224C479.692 154.355 473.062 164.647 464.752 174.1C456.443 183.465 446.674 192.255 435.447 200.471C424.22 208.599 412.462 215.534 400.175 221.277C373.654 233.468 348.283 239.564 324.06 239.564C312.126 239.564 304.612 238.592 301.518 236.649C300.369 236.03 299.219 235.103 298.07 233.866C297.009 232.541 296.17 231.657 295.551 231.216C293.871 230.155 293.031 227.903 293.031 224.457C293.031 220.923 293.385 217.743 294.092 214.916C296.744 205.463 308.634 184.967 329.762 153.427C350.979 121.8 368.703 96.3121 382.936 76.9645C383.909 75.6393 388.903 74.6675 397.92 74.0491C401.633 74.0491 404.197 74.3141 405.611 74.8442C407.026 75.3742 407.733 76.346 407.733 77.7596C407.733 79.0848 405.435 82.972 400.838 89.4212C396.241 95.782 381.478 118.178 356.548 156.608C331.619 194.95 319.154 214.651 319.154 215.711C319.154 216.771 323.044 217.301 330.823 217.301C338.691 217.301 348.327 215.667 359.731 212.398C371.223 209.041 382.008 204.668 392.086 199.279C402.164 193.89 411.799 187.661 420.993 180.594C430.187 173.438 438.055 166.149 444.597 158.728C458.918 142.473 466.078 128.028 466.078 115.395C466.078 102.761 460.288 92.0274 448.707 83.1928C437.215 74.3583 421.435 69.941 401.368 69.941C387.842 69.941 375.068 72.1938 363.046 76.6994C351.023 81.205 342.757 85.2248 338.249 88.7586C333.74 92.2924 331.486 94.6777 331.486 95.9146C331.486 95.9305 331.486 95.9462 331.487 95.9617C331.536 97.3724 333.776 96.8449 335.163 96.5869L337.364 96.1778C338.305 96.0027 339.973 95.4866 339.973 96.4446C339.973 96.798 339.221 97.4164 337.719 98.2999C336.216 99.1833 334.978 100.155 334.006 101.215C333.122 102.187 330.823 103.821 327.11 106.118C324.057 107.934 321.244 109.064 318.669 109.506Z" fill="url(#paint0_linear_403_4818)"/>
<path d="M39.552 360C47.552 360 54.592 361.504 60.672 364.512C66.752 367.52 71.488 371.744 74.88 377.184C78.272 382.56 79.968 388.832 79.968 396C79.968 403.104 78.272 409.376 74.88 414.816C71.488 420.192 66.752 424.416 60.672 427.488C54.592 430.496 47.552 432 39.552 432H8.736V360H39.552ZM17.76 429.6L12 424.032H39.936C46.08 424.032 51.456 422.848 56.064 420.48C60.672 418.112 64.256 414.816 66.816 410.592C69.44 406.368 70.752 401.504 70.752 396C70.752 390.368 69.44 385.472 66.816 381.312C64.256 377.088 60.672 373.792 56.064 371.424C51.456 369.056 46.08 367.872 39.936 367.872H12L17.76 362.4V429.6ZM148.224 392.16V399.84H99.168V392.16H148.224ZM104.832 396L99.36 429.792L94.56 424.128H150.816V432H90.144L96.096 396L90.144 360H150.336V367.872H94.56L99.36 362.208L104.832 396ZM159.749 408.672H168.869C169.317 412.064 170.661 415.04 172.901 417.6C175.141 420.16 178.085 422.144 181.733 423.552C185.445 424.896 189.701 425.568 194.501 425.568C201.733 425.568 207.461 424.352 211.685 421.92C215.973 419.424 218.117 416.064 218.117 411.84C218.117 408.576 216.773 406.08 214.085 404.352C211.461 402.624 206.853 401.376 200.261 400.608L186.341 398.88C177.573 397.856 171.269 395.776 167.429 392.64C163.589 389.44 161.669 385.152 161.669 379.776C161.669 375.488 162.949 371.776 165.509 368.64C168.069 365.44 171.653 363.008 176.261 361.344C180.933 359.616 186.373 358.752 192.581 358.752C198.789 358.752 204.293 359.712 209.093 361.632C213.957 363.488 217.797 366.112 220.613 369.504C223.493 372.832 225.061 376.768 225.317 381.312H216.197C215.813 378.24 214.597 375.616 212.549 373.44C210.501 371.2 207.749 369.472 204.292 368.256C200.901 366.976 196.933 366.336 192.389 366.336C185.797 366.336 180.517 367.52 176.549 369.888C172.645 372.192 170.693 375.424 170.693 379.584C170.693 382.784 171.973 385.248 174.533 386.976C177.157 388.64 181.573 389.856 187.781 390.624L201.413 392.448C207.749 393.216 212.773 394.336 216.485 395.808C220.261 397.28 222.981 399.264 224.645 401.76C226.309 404.192 227.141 407.296 227.141 411.072C227.141 415.616 225.765 419.552 223.013 422.88C220.325 426.208 216.517 428.768 211.589 430.56C206.661 432.352 200.933 433.248 194.405 433.248C187.813 433.248 181.957 432.224 176.837 430.176C171.717 428.064 167.653 425.184 164.645 421.536C161.637 417.824 160.005 413.536 159.749 408.672ZM240.017 360H249.041V432H240.017V360ZM337.783 400.608C337.719 405.152 336.823 409.408 335.095 413.376C333.431 417.344 331.031 420.832 327.895 423.84C324.823 426.784 321.079 429.088 316.663 430.752C312.311 432.416 307.415 433.248 301.975 433.248C296.215 433.248 290.903 432.384 286.039 430.656C281.239 428.864 277.047 426.336 273.463 423.072C269.943 419.808 267.223 415.904 265.303 411.36C263.383 406.752 262.423 401.632 262.423 396C262.423 390.368 263.383 385.28 265.303 380.736C267.287 376.128 270.071 372.192 273.655 368.928C277.239 365.664 281.463 363.168 286.327 361.44C291.191 359.648 296.567 358.752 302.455 358.752C309.495 358.752 315.703 359.936 321.079 362.304C326.519 364.672 330.903 367.936 334.231 372.096C337.559 376.192 339.543 380.896 340.183 386.208H330.967C330.263 382.304 328.631 378.912 326.071 376.032C323.511 373.088 320.215 370.816 316.183 369.216C312.215 367.616 307.575 366.816 302.263 366.816C296.055 366.816 290.647 368 286.039 370.368C281.495 372.736 277.943 376.096 275.383 380.448C272.887 384.8 271.639 389.984 271.639 396C271.639 401.952 272.919 407.136 275.479 411.552C278.039 415.968 281.655 419.36 286.327 421.728C290.999 424.096 296.471 425.28 302.743 425.28C308.887 425.28 314.231 424.16 318.775 421.92C323.383 419.68 326.967 416.608 329.527 412.704C332.087 408.8 333.431 404.32 333.559 399.264L337.783 400.608ZM306.295 404.544V397.344H341.047V432H334.039L333.175 401.472L335.671 404.544H306.295ZM422.418 427.488L418.002 427.776V360H426.738V432H415.122L360.306 364.224L364.722 363.936V432H355.986V360H367.698L422.418 427.488ZM465.842 408.672H474.962C475.41 412.064 476.754 415.04 478.994 417.6C481.234 420.16 484.178 422.144 487.826 423.552C491.538 424.896 495.794 425.568 500.594 425.568C507.826 425.568 513.554 424.352 517.778 421.92C522.066 419.424 524.21 416.064 524.21 411.84C524.21 408.576 522.866 406.08 520.178 404.352C517.554 402.624 512.946 401.376 506.354 400.608L492.434 398.88C483.666 397.856 477.362 395.776 473.522 392.64C469.682 389.44 467.762 385.152 467.762 379.776C467.762 375.488 469.042 371.776 471.602 368.64C474.162 365.44 477.746 363.008 482.354 361.344C487.026 359.616 492.466 358.752 498.674 358.752C504.882 358.752 510.386 359.712 515.186 361.632C520.05 363.488 523.89 366.112 526.706 369.504C529.586 372.832 531.154 376.768 531.41 381.312H522.29C521.906 378.24 520.69 375.616 518.642 373.44C516.594 371.2 513.842 369.472 510.386 368.256C506.994 366.976 503.026 366.336 498.482 366.336C491.89 366.336 486.61 367.52 482.642 369.888C478.738 372.192 476.786 375.424 476.786 379.584C476.786 382.784 478.066 385.248 480.626 386.976C483.25 388.64 487.666 389.856 493.874 390.624L507.506 392.448C513.842 393.216 518.866 394.336 522.578 395.808C526.354 397.28 529.074 399.264 530.738 401.76C532.402 404.192 533.234 407.296 533.234 411.072C533.234 415.616 531.858 419.552 529.106 422.88C526.418 426.208 522.61 428.768 517.682 430.56C512.754 432.352 507.026 433.248 500.498 433.248C493.906 433.248 488.05 432.224 482.93 430.176C477.81 428.064 473.746 425.184 470.738 421.536C467.73 417.824 466.098 413.536 465.842 408.672ZM546.111 360H555.135V432H546.111V360ZM605.631 360H614.655V432H605.631V360ZM550.719 391.872H610.527V399.84H550.719V391.872ZM668.37 433.248C660.37 433.248 653.298 431.68 647.154 428.544C641.074 425.408 636.338 421.056 632.946 415.488C629.554 409.856 627.858 403.36 627.858 396C627.858 388.576 629.554 382.08 632.946 376.512C636.338 370.944 641.074 366.592 647.154 363.456C653.298 360.32 660.37 358.752 668.37 358.752C676.37 358.752 683.41 360.32 689.49 363.456C695.57 366.592 700.306 370.944 703.698 376.512C707.09 382.08 708.786 388.576 708.786 396C708.786 403.36 707.09 409.856 703.698 415.488C700.306 421.056 695.57 425.408 689.49 428.544C683.41 431.68 676.37 433.248 668.37 433.248ZM668.37 425.088C674.706 425.088 680.21 423.904 684.882 421.536C689.554 419.104 693.17 415.712 695.73 411.36C698.29 407.008 699.57 401.888 699.57 396C699.57 390.048 698.29 384.896 695.73 380.544C693.17 376.192 689.554 372.832 684.882 370.464C680.21 368.096 674.706 366.912 668.37 366.912C662.034 366.912 656.53 368.096 651.858 370.464C647.186 372.832 643.538 376.192 640.914 380.544C638.354 384.896 637.074 390.048 637.074 396C637.074 401.888 638.354 407.008 640.914 411.36C643.538 415.712 647.186 419.104 651.858 421.536C656.53 423.904 662.034 425.088 668.37 425.088ZM759.038 360C764.094 360 768.478 360.896 772.19 362.688C775.902 364.48 778.782 367.008 780.83 370.272C782.878 373.472 783.902 377.184 783.902 381.408C783.902 385.632 782.878 389.376 780.83 392.64C778.782 395.84 775.902 398.368 772.19 400.224C768.478 402.016 764.094 402.912 759.038 402.912H726.206V395.04H758.846C763.71 395.04 767.55 393.824 770.366 391.392C773.246 388.896 774.686 385.568 774.686 381.408C774.686 377.248 773.246 373.952 770.366 371.52C767.55 369.088 763.71 367.872 758.846 367.872H727.166L731.198 363.456V432H722.174V360H759.038Z" fill="white"/>
<defs>
<linearGradient id="paint0_linear_403_4818" x1="293.031" y1="144.549" x2="492.069" y2="144.549" gradientUnits="userSpaceOnUse">
<stop stop-color="#8D70DA"/>
<stop offset="1" stop-color="#F66A4F"/>
</linearGradient>
</defs>
</svg>
