<svg width="29" height="24" viewBox="0 0 29 24" fill="none" xmlns="http://www.w3.org/2000/svg">
<path d="M28.5215 3.03824C28.8554 2.56135 28.8749 1.9475 28.5719 1.45261C28.2689 0.957714 27.6953 0.666729 27.0904 0.700968L2.09141 2.11586C1.45804 2.15171 0.906981 2.53708 0.686747 3.09819C0.466512 3.65929 0.618718 4.2901 1.07472 4.70612L7.0542 10.1613C7.5676 10.6297 8.34809 10.7204 8.96675 10.3836L15.3011 6.93518C16.0664 6.51856 17.0449 6.7658 17.4867 7.4874C17.9286 8.209 17.6664 9.13171 16.9011 9.54833L10.5668 12.9968C9.94809 13.3336 9.64117 14.0163 9.81465 14.6697L11.8352 22.2803C11.9893 22.8607 12.4925 23.3004 13.118 23.4011C13.7434 23.5018 14.3729 23.2445 14.7225 22.7452L28.5215 3.03824Z" fill="white"/>
</svg>
